<svg width="27" height="26" viewBox="0 0 27 26" fill="none" xmlns="http://www.w3.org/2000/svg">
<path d="M12.1248 25.1666L1.12484 14.1666C0.958171 14 0.839837 13.8194 0.769837 13.625C0.700948 13.4305 0.666504 13.2222 0.666504 13C0.666504 12.7778 0.700948 12.5694 0.769837 12.375C0.839837 12.1805 0.958171 12 1.12484 11.8333L12.1248 0.833308C12.4304 0.527752 12.8121 0.367753 13.2698 0.353308C13.7287 0.339975 14.1248 0.499974 14.4582 0.833308C14.7915 1.13886 14.9654 1.52053 14.9798 1.97831C14.9932 2.4372 14.8332 2.83331 14.4998 3.16664L6.33317 11.3333H24.9582C25.4304 11.3333 25.8265 11.4928 26.1465 11.8116C26.4654 12.1316 26.6248 12.5278 26.6248 13C26.6248 13.4722 26.4654 13.8678 26.1465 14.1866C25.8265 14.5066 25.4304 14.6666 24.9582 14.6666H6.33317L14.4998 22.8333C14.8054 23.1389 14.9654 23.5278 14.9798 24C14.9932 24.4722 14.8332 24.8611 14.4998 25.1666C14.1943 25.5 13.8054 25.6666 13.3332 25.6666C12.8609 25.6666 12.4582 25.5 12.1248 25.1666Z" fill="white"/>
</svg>
