<svg width="25" height="26" viewBox="0 0 25 26" fill="none" xmlns="http://www.w3.org/2000/svg">
<path fill-rule="evenodd" clip-rule="evenodd" d="M0 3.46069C0 2.88539 0.46637 2.41902 1.04167 2.41902H2.54005C3.97401 2.41902 5.22396 3.39495 5.57174 4.7861L5.76123 5.54402H19.3778C21.7622 5.54402 23.2642 8.10511 22.1078 10.1867L19.2142 15.395C18.6631 16.3871 17.6174 17.0024 16.4825 17.0024H8.91828C7.48432 17.0024 6.23438 16.0264 5.88659 14.6353L3.55061 5.29138C3.43469 4.82766 3.01804 4.50236 2.54005 4.50236H1.04167C0.46637 4.50236 0 4.03599 0 3.46069ZM6.28206 7.62736L7.90772 14.13C8.02365 14.5937 8.4403 14.919 8.91828 14.919H16.4825C16.8608 14.919 17.2094 14.7139 17.3931 14.3832L20.2866 9.1749C20.6731 8.47924 20.1705 7.62736 19.3778 7.62736H6.28206Z" fill="#2662FA"/>
<path d="M9.375 21.169C9.375 22.3196 8.44226 23.2524 7.29167 23.2524C6.14107 23.2524 5.20833 22.3196 5.20833 21.169C5.20833 20.0184 6.14107 19.0857 7.29167 19.0857C8.44226 19.0857 9.375 20.0184 9.375 21.169Z" fill="#2662FA"/>
<path d="M19.7917 21.169C19.7917 22.3196 18.8589 23.2524 17.7083 23.2524C16.5577 23.2524 15.625 22.3196 15.625 21.169C15.625 20.0184 16.5577 19.0857 17.7083 19.0857C18.8589 19.0857 19.7917 20.0184 19.7917 21.169Z" fill="#2662FA"/>
</svg>
